<svg xmlns="http://www.w3.org/2000/svg" viewBox="0 0 100 100"><defs><style>.cls-1{fill:#8af;}</style></defs><g id="Layer_2" data-name="Layer 2"><path class="cls-1" d="M50,0a50,50,0,1,0,50,50A50,50,0,0,0,50,0ZM14.53,60.64a5.11,5.11,0,0,1-1.39-1.39c-.08-.12-.14-.25-.21-.38a4.37,4.37,0,0,1-.25-.48,4.32,4.32,0,0,1-.16-.51c0-.14-.09-.28-.12-.42a4.59,4.59,0,0,1-.1-1V32.93a5,5,0,0,1,10,0V44.41L52.94,13.76A5,5,0,0,1,60,20.83L29.37,51.48H40.85a5,5,0,0,1,0,10H17.3a4.59,4.59,0,0,1-1-.1,3.06,3.06,0,0,1-.43-.13,4.13,4.13,0,0,1-.5-.15,4.59,4.59,0,0,1-.49-.26C14.78,60.77,14.65,60.72,14.53,60.64ZM82.7,72.07a5,5,0,0,1-5-5V55.59L47.06,86.24A5,5,0,1,1,40,79.17L70.63,48.52H59.15a5,5,0,0,1,0-10h23.6a4.88,4.88,0,0,1,.93.09c.15,0,.29.09.44.13s.33.09.49.15.32.17.48.25l.39.21a5.21,5.21,0,0,1,1.38,1.39c.08.12.14.25.21.38s.18.31.25.48a4.16,4.16,0,0,1,.16.5c0,.15.09.28.12.43a4.59,4.59,0,0,1,.1,1V67.07A5,5,0,0,1,82.7,72.07Z"/></g></svg>