<svg id="Layer_3" data-name="Layer 3" xmlns="http://www.w3.org/2000/svg" viewBox="0 0 100 100"><defs><style>.cls-1{fill:#b6e5ba;}</style></defs><path class="cls-1" d="M50,0a50,50,0,1,0,50,50A50,50,0,0,0,50,0ZM20.39,58.13h0a4.09,4.09,0,0,1-.49-.61,3.3,3.3,0,0,1-.18-.32c-.06-.12-.14-.23-.19-.36a3.38,3.38,0,0,1-.13-.42c0-.11-.08-.22-.1-.33a4.15,4.15,0,0,1-.08-.79V36a4,4,0,0,1,8,0v9.63L52.48,20.39a4,4,0,1,1,5.65,5.66L32.88,51.31h9.63a4,4,0,0,1,0,8H23.22a4.13,4.13,0,0,1-.78-.08l-.34-.1L21.69,59c-.13-.06-.25-.13-.37-.2a3.24,3.24,0,0,1-.32-.17A3.61,3.61,0,0,1,20.39,58.13ZM80.78,64a4,4,0,0,1-8,0V54.35L47.52,79.61A4,4,0,1,1,41.87,74L67.12,48.69H57.49a4,4,0,0,1,0-8H76.83a4.51,4.51,0,0,1,.73.07l.35.11c.13,0,.27.07.4.12a2.64,2.64,0,0,1,.37.2,2,2,0,0,1,.32.17,4,4,0,0,1,.6.49h0a3.64,3.64,0,0,1,.49.61,2.91,2.91,0,0,1,.17.3,3.48,3.48,0,0,1,.2.38,3.24,3.24,0,0,1,.13.41c0,.11.07.22.1.34a4.13,4.13,0,0,1,.08.78Z"/></svg>