<?xml version="1.0" encoding="utf-8"?>
<!-- Generator: Adobe Illustrator 25.2.0, SVG Export Plug-In . SVG Version: 6.00 Build 0)  -->
<svg version="1.1" id="Layer_1" xmlns="http://www.w3.org/2000/svg" xmlns:xlink="http://www.w3.org/1999/xlink" x="0px" y="0px"
	 viewBox="0 0 59.3 59.4" style="enable-background:new 0 0 59.3 59.4;" xml:space="preserve">
<style type="text/css">
	.st0{fill:url(#SVGID_1_);}
	.st1{clip-path:url(#SVGID_3_);}
	.st2{fill:url(#SVGID_4_);}
	.st3{fill:url(#SVGID_5_);}
	.st4{fill:url(#SVGID_6_);}
	.st5{fill:url(#SVGID_7_);}
	.st6{fill:url(#SVGID_8_);}
	.st7{fill:url(#SVGID_9_);}
	.st8{fill:#E92929;}
	.st9{fill:#D17F2A;}
	.st10{fill:url(#SVGID_10_);}
	.st11{fill:url(#SVGID_11_);}
	.st12{fill:url(#SVGID_12_);}
	.st13{fill:url(#SVGID_13_);}
	.st14{fill:url(#SVGID_14_);}
	.st15{fill:url(#SVGID_15_);}
	.st16{fill:url(#SVGID_16_);}
	.st17{fill:url(#SVGID_17_);}
	.st18{fill:url(#SVGID_18_);}
	.st19{fill:url(#SVGID_19_);}
	.st20{fill:url(#SVGID_20_);}
	.st21{fill:url(#SVGID_21_);}
</style>
<radialGradient id="SVGID_1_" cx="29.7" cy="1048.48" r="28.9443" gradientTransform="matrix(1 0 0 1 0 -1018.78)" gradientUnits="userSpaceOnUse">
	<stop  offset="0" style="stop-color:#3E57A6"/>
	<stop  offset="0.18" style="stop-color:#3C54A1"/>
	<stop  offset="0.4" style="stop-color:#354B92"/>
	<stop  offset="0.65" style="stop-color:#2B3D79"/>
	<stop  offset="0.91" style="stop-color:#1C2856"/>
	<stop  offset="1" style="stop-color:#162048"/>
</radialGradient>
<circle class="st0" cx="29.7" cy="29.7" r="29"/>
<g>
	<g>
		<defs>
			<circle id="SVGID_2_" cx="29.7" cy="29.7" r="29"/>
		</defs>
		<clipPath id="SVGID_3_">
			<use xlink:href="#SVGID_2_"  style="overflow:visible;"/>
		</clipPath>
		<g class="st1">
			
				<linearGradient id="SVGID_4_" gradientUnits="userSpaceOnUse" x1="22.9145" y1="1065.3597" x2="54.9145" y2="1030.9998" gradientTransform="matrix(1 0 0 1 0 -1018.78)">
				<stop  offset="0" style="stop-color:#EB2627"/>
				<stop  offset="0.13" style="stop-color:#ED4229"/>
				<stop  offset="0.43" style="stop-color:#F2822D"/>
				<stop  offset="0.69" style="stop-color:#F5B130"/>
				<stop  offset="0.89" style="stop-color:#F7CD31"/>
				<stop  offset="1" style="stop-color:#F8D832"/>
			</linearGradient>
			<path class="st2" d="M53.9,32.6c-0.1,1-0.2,2.1-0.4,3.1l0,0c-1.2,1.5-3.8,3.7-9.2,6.4c2.9-0.2,5.7-1.1,8.1-2.7l0,0
				c-2.7,7.2-9,12.6-16.6,14l0,0l0.3-0.1c1.2-0.5,2-1.6,2.1-2.8l0,0c0-0.4,0.1-0.8,0-1.2c0-0.2,0-0.5,0-0.7l0,0
				c-0.1-2.6-1.2-5.1-3.1-6.9v-0.8l0,0l0,0c0.2-0.1,0.4-0.2,0.7-0.3c1-0.4,1.9-1,2.7-1.7l0.5-0.4l0,0c7-6.5,8.4-22.1-3.2-32.7
				C40,7,43.9,9.3,47,12.3l0,0c0,0.1,0.3,1.5-0.8,5.1c0.8-1.2,1.4-2.6,1.9-4l0,0c1.7,2,3,4.3,3.9,6.7c0.3,0.8,0.6,1.7,0.8,2.5
				c-1.2,2.4-2.7,4.6-4.4,6.6c1.9-1.2,3.5-2.7,4.9-4.4l0,0c0.3,1.7,0.5,3.5,0.5,5.2C54,31,53.9,31.8,53.9,32.6z"/>
			
				<linearGradient id="SVGID_5_" gradientUnits="userSpaceOnUse" x1="45.4538" y1="1049.3258" x2="52.8438" y2="1031.2058" gradientTransform="matrix(1 0 0 1 0 -1018.78)">
				<stop  offset="0" style="stop-color:#B78A3E"/>
				<stop  offset="1" style="stop-color:#CEAE4C"/>
			</linearGradient>
			<path class="st3" d="M49.7,22c0.1-2.9-0.4-5.8-1.5-8.5c1.7,2,3,4.2,3.9,6.6c0.3,0.8,0.6,1.7,0.8,2.5c-1.2,2.4-2.7,4.6-4.4,6.6
				C49.2,26.9,49.6,24.5,49.7,22z"/>
			
				<linearGradient id="SVGID_6_" gradientUnits="userSpaceOnUse" x1="56.4246" y1="1044.4102" x2="39.8746" y2="1070.6702" gradientTransform="matrix(1 0 0 1 0 -1018.78)">
				<stop  offset="0" style="stop-color:#B78A3E"/>
				<stop  offset="1" style="stop-color:#EB2627"/>
			</linearGradient>
			<path class="st4" d="M53.9,32.6c-0.1,1-0.2,2.1-0.4,3.1l0,0c-1.2,1.5-3.8,3.7-9.2,6.4c2.7-3,9-12.7,9.1-17.1
				c0.3,1.7,0.5,3.5,0.5,5.2C54,31,53.9,31.8,53.9,32.6z"/>
			
				<linearGradient id="SVGID_7_" gradientUnits="userSpaceOnUse" x1="38.5705" y1="1061.2693" x2="44.0805" y2="1000.3593" gradientTransform="matrix(1 0 0 1 0 -1018.78)">
				<stop  offset="0" style="stop-color:#EB2627"/>
				<stop  offset="6.000000e-02" style="stop-color:#ED4129"/>
				<stop  offset="0.16" style="stop-color:#F0692B"/>
				<stop  offset="0.26" style="stop-color:#F28C2D"/>
				<stop  offset="0.37" style="stop-color:#F4A72F"/>
				<stop  offset="0.49" style="stop-color:#F6BD30"/>
				<stop  offset="0.62" style="stop-color:#F7CC31"/>
				<stop  offset="0.78" style="stop-color:#F8D532"/>
				<stop  offset="1" style="stop-color:#F8D832"/>
			</linearGradient>
			<path class="st5" d="M42.5,10.3c1.8,2.8,8.4,18.7-3.3,28.1l0,0c7-6.5,8.4-22.1-3.2-32.7c4.2,1.2,8,3.5,11.2,6.6l0,0
				C45.7,11.5,44.2,10.8,42.5,10.3z"/>
			
				<linearGradient id="SVGID_8_" gradientUnits="userSpaceOnUse" x1="24.0352" y1="1094.5442" x2="36.3752" y2="1045.1742" gradientTransform="matrix(1 0 0 1 0 -1018.78)">
				<stop  offset="0" style="stop-color:#EB2627"/>
				<stop  offset="1" style="stop-color:#F8D832"/>
			</linearGradient>
			<path class="st6" d="M35.3,40.8v0.8c2,1.9,3.1,4.5,3.1,7.2c0,0.1,0,0.3,0,0.5c0,1.2,0,3.3-2.5,4.2c-0.5,0.9-1.1,1.8-1.8,2.5
				c0.7-1.7,1-3.6,0.7-5.5c-0.8,4.3-6.3,7.9-8.9,11.9c-1.5,2.1-2.4,4.6-2.7,7.3c-0.3-3.5,0-7.1,0.9-10.5l0,0c0-0.1,0.1-0.2,0.1-0.3
				v-0.1c5.7-9.4,3.6-14.9,3.6-14.9l-1.5-3.8V40c0-0.3-0.1-0.6-0.1-0.9l0,0c-0.2-1.8-0.1-3.6,0.3-5.3l0,0l0,0c0.6-2.5,2.5-4.4,5-4.9
				c-1.3-0.5-2.1-1.6-2.3-3c0.3,0.5,1.5,1.2,4.6,2c5.8,1.3,4.2,4,4.4,4.2c1.1,1,1.5,2.6,1.2,4.1c-1-1.8-2.8-2.9-4.9-2.8
				c-0.5,0-0.9,0.1-1.3,0.3l0,0C30.9,34.5,32.5,38.3,35.3,40.8z"/>
			
				<linearGradient id="SVGID_9_" gradientUnits="userSpaceOnUse" x1="46.4701" y1="1054.8325" x2="26.8801" y2="1046.3625" gradientTransform="matrix(1 0 0 1 0 -1018.78)">
				<stop  offset="0" style="stop-color:#EB2627"/>
				<stop  offset="1" style="stop-color:#F8D832"/>
			</linearGradient>
			<path class="st7" d="M39.2,35.9c0,0,0.2-2.8-3.2-4.4c0.5,0,1,0,1.4,0.2c-0.4-0.9-1.6-2.7-4.8-2.4c0.5-0.2,1.1-0.3,1.7-0.3
				c0,0-3.9-0.6-5.2-3.2c0.3,0.5,1.5,1.2,4.6,2c5.8,1.3,4.2,4,4.4,4.2C39.1,32.9,39.6,34.5,39.2,35.9z"/>
			<path class="st8" d="M36,30.7c-0.4,0.1-0.8,0.1-1.2-0.1c-0.3-0.2-0.6-0.3-0.9-0.4C33.9,30.2,35.4,29.7,36,30.7z"/>
			<path class="st9" d="M38.4,47.4c0-2.5-1.1-4.9-3.1-6.5l0,0l0,0l0,0c-2.8-2.6-4.5-6.3-2.4-7.4c-1.1,0.5-1.7,1.8-1.5,3
				c0.2,2.4,1.6,3.9,1.6,8.2c0.4-1.1,0.5-2.2,0.5-3.3c0.8,0.2,4.8,2.3,4.7,8.6C38.4,49.1,38.4,48.2,38.4,47.4z"/>
			
				<linearGradient id="SVGID_10_" gradientUnits="userSpaceOnUse" x1="59.2659" y1="1059.1736" x2="24.3459" y2="1073.3536" gradientTransform="matrix(1 0 0 1 0 -1018.78)">
				<stop  offset="0" style="stop-color:#B78A3E"/>
				<stop  offset="1" style="stop-color:#EB2627"/>
			</linearGradient>
			<path class="st10" d="M52.4,39.4c-2.7,7.2-9,12.6-16.6,14c1.3-2.4,1.6-5.2,0.9-7.8c1,1.3,1.5,2.8,1.5,4.4
				c0.1-0.9,0.2-1.7,0.1-2.6l0,0C46,47.4,52.2,39.6,52.4,39.4L52.4,39.4z"/>
			
				<linearGradient id="SVGID_11_" gradientUnits="userSpaceOnUse" x1="36.9696" y1="1074.1304" x2="37.3196" y2="1052.4603" gradientTransform="matrix(1 0 0 1 0 -1018.78)">
				<stop  offset="0" style="stop-color:#8E5323"/>
				<stop  offset="1" style="stop-color:#E59B29"/>
			</linearGradient>
			<path class="st11" d="M38.9,47.4c0,1-0.2,2-0.6,3l0,0v0.1c0,0.1-0.1,0.2-0.1,0.3c-0.1-1.3-0.4-2.5-0.8-3.7
				c0.3,2.1-0.1,4.2-1.1,6.1l0,0c0,0,0,0,0,0.1L36,53.4l0,0c1.3-2.4,1.6-5.2,0.9-7.8c1,1.3,1.5,2.8,1.5,4.4c0-0.3,0.1-0.8,0.1-1.2
				c0-0.1,0-0.2,0-0.2l0,0c0-0.4,0-0.8,0-1.2c0-2.5-1.1-4.9-3.1-6.5l0,0l0,0l0,0c0.2-0.1,0.4-0.2,0.7-0.3
				C37.9,42.4,38.9,44.8,38.9,47.4z"/>
			
				<linearGradient id="SVGID_12_" gradientUnits="userSpaceOnUse" x1="16.0491" y1="1103.7966" x2="18.4091" y2="1041.5667" gradientTransform="matrix(1 0 0 1 0 -1018.78)">
				<stop  offset="0" style="stop-color:#EB2627"/>
				<stop  offset="0.11" style="stop-color:#EC2E27"/>
				<stop  offset="0.28" style="stop-color:#ED4429"/>
				<stop  offset="0.49" style="stop-color:#F0682B"/>
				<stop  offset="0.74" style="stop-color:#F3992E"/>
				<stop  offset="1" style="stop-color:#F8D832"/>
			</linearGradient>
			<path class="st12" d="M24.1,58.6L24.1,58.6c-6.6,6.9-8.3,17.1-4.3,25.7l0,0c-0.2-0.1-5.7-3.8-5.2-17.7c-1.4,1.5-2,5.6-2,8.7
				s0.5,4.7,1,8.1c0.5,3.9,0.1,9.8-1.9,13.2l0,0c0-0.2,0.5-8.3-1.8-13.5C4.4,71.7,9.2,57.8,20.7,52.3c1.1-0.5,2.3-1,3.5-1.3
				c-2.4-0.4-4.8,0-6.9,1.3c-4.8-3.2-8.3-8-10-13.6c2.6,1.9,5.8,3,9,3.1l0,0c-6.1-2.4-8.9-5.5-10-7.2l0,0c-0.6-4.4-0.3-8.8,1.1-13
				l0,0c0,0,0,0,0-0.1c1.3,3,3.2,5.7,5.5,8c-3.6-5.5-4-10-4-11.9l0,0c1.4-2.8,3.3-5.4,5.6-7.5l0,0c-0.3,2.6,0,5.2,1.1,7.5
				c-0.1-3.2,0.3-6.3,1.2-9.4l0,0c3.2-2.3,6.9-3.6,10.8-4c-13,11.7-9.6,27.9-3.3,34.2c0.6,0.6,1.2,1.1,1.8,1.5
				c1.7,1.5,2.9,3.5,3.3,5.8C30.4,49.6,27.6,55.2,24.1,58.6z"/>
			
				<linearGradient id="SVGID_13_" gradientUnits="userSpaceOnUse" x1="17.6752" y1="1052.5764" x2="13.2452" y2="1036.6265" gradientTransform="matrix(1 0 0 1 0 -1018.78)">
				<stop  offset="0" style="stop-color:#B78A3E"/>
				<stop  offset="1" style="stop-color:#CEAE4C"/>
			</linearGradient>
			<path class="st13" d="M13,29.5L13,29.5c-1.4-4.2-2.3-12.4,1.6-19.4c-1.2,3.7-1,7.6,0.3,11.2c-0.3,3.8,0.3,7.6,1.7,11.1
				C15.3,31.6,14.1,30.6,13,29.5z"/>
			
				<linearGradient id="SVGID_14_" gradientUnits="userSpaceOnUse" x1="12.5102" y1="1048.4122" x2="10.5402" y2="1005.0822" gradientTransform="matrix(1 0 0 1 0 -1018.78)">
				<stop  offset="0" style="stop-color:#B78A3E"/>
				<stop  offset="1" style="stop-color:#CEAE4C"/>
			</linearGradient>
			<path class="st14" d="M13,29.5c-3.6-5.5-4-10-4-11.9l0,0c1.4-2.8,3.3-5.4,5.6-7.5C10.7,17.1,11.6,25.4,13,29.5z"/>
			
				<linearGradient id="SVGID_15_" gradientUnits="userSpaceOnUse" x1="12.2025" y1="1059.5319" x2="-0.9875" y2="1017.5919" gradientTransform="matrix(1 0 0 1 0 -1018.78)">
				<stop  offset="0" style="stop-color:#B78A3E"/>
				<stop  offset="1" style="stop-color:#CEAE4C"/>
			</linearGradient>
			<path class="st15" d="M16.4,41.8c-6.1-2.4-8.9-5.5-10-7.2l0,0c-0.6-4.4-0.3-8.8,1.1-13C6.5,37.2,15.8,41.5,16.4,41.8z"/>
			
				<linearGradient id="SVGID_16_" gradientUnits="userSpaceOnUse" x1="28.738" y1="1057.1305" x2="18.758" y2="1018.4005" gradientTransform="matrix(1 0 0 1 0 -1018.78)">
				<stop  offset="0" style="stop-color:#EB2627"/>
				<stop  offset="6.000000e-02" style="stop-color:#ED4129"/>
				<stop  offset="0.16" style="stop-color:#F0692B"/>
				<stop  offset="0.26" style="stop-color:#F28C2D"/>
				<stop  offset="0.37" style="stop-color:#F4A72F"/>
				<stop  offset="0.49" style="stop-color:#F6BD30"/>
				<stop  offset="0.62" style="stop-color:#F7CC31"/>
				<stop  offset="0.78" style="stop-color:#F8D532"/>
				<stop  offset="1" style="stop-color:#F8D832"/>
			</linearGradient>
			<path class="st16" d="M24.4,38.4L24.4,38.4C11.8,26.8,20.6,8.8,23.1,6.8c-2-0.1-6,1.3-6.2,1.4c3.2-2.3,6.9-3.6,10.8-4
				C14.8,16,18.2,32.1,24.4,38.4z"/>
			
				<linearGradient id="SVGID_17_" gradientUnits="userSpaceOnUse" x1="22.9918" y1="1061.5569" x2="6.6418" y2="1045.7468" gradientTransform="matrix(1 0 0 1 0 -1018.78)">
				<stop  offset="0" style="stop-color:#B78A3E"/>
				<stop  offset="1" style="stop-color:#CEAE4C"/>
			</linearGradient>
			<path class="st17" d="M21,41.7c-1.5,0.2-3.1,0.2-4.6,0.1l0,0c-0.5-0.2-9.8-4.6-8.9-20.2l0,0C10.7,34.1,18.2,40.3,21,41.7z"/>
			
				<linearGradient id="SVGID_18_" gradientUnits="userSpaceOnUse" x1="9.9386" y1="1111.1201" x2="18.4786" y2="1046.5302" gradientTransform="matrix(1 0 0 1 0 -1018.78)">
				<stop  offset="0" style="stop-color:#EB2627"/>
				<stop  offset="0.19" style="stop-color:#E4332A"/>
				<stop  offset="0.56" style="stop-color:#D25732"/>
				<stop  offset="1" style="stop-color:#B78A3E"/>
			</linearGradient>
			<path class="st18" d="M16.8,70.8c-0.3,10.6,2.9,13.4,3,13.6l0,0c-0.2-0.1-5.7-3.8-5.2-17.7c-1.4,1.5-2,5.6-2,8.7s0.6,4.7,1,8.1
				c0.5,3.9,0.1,9.8-1.9,13.2c1-4.6,1-9.3-0.1-13.9C9.7,75.8,6,59.5,24.1,51c-2.4-0.4-4.8,0-6.9,1.3c-4.8-3.2-8.3-8-10-13.6
				c5.2,6.3,12.9,7.8,17.7,7.8c0.8,2.7,0.5,5.7-0.9,8.2C22.3,58.3,17.1,60,16.8,70.8z"/>
			
				<linearGradient id="SVGID_19_" gradientUnits="userSpaceOnUse" x1="8.6395" y1="1114.9261" x2="17.6995" y2="1070.6862" gradientTransform="matrix(1 0 0 1 0 -1018.78)">
				<stop  offset="0" style="stop-color:#602E8A"/>
				<stop  offset="0.51" style="stop-color:#E92929"/>
				<stop  offset="1" style="stop-color:#F8D833"/>
			</linearGradient>
			<path class="st19" d="M11.6,82.7c1.1,4.6,1.1,9.3,0.1,13.9l0,0c0-0.2,0.5-8.3-1.8-13.5C4.4,71.6,9.2,57.8,20.7,52.3
				c1.1-0.5,2.3-1,3.4-1.3C6.1,59.4,9.7,75.8,11.6,82.7z"/>
			
				<linearGradient id="SVGID_20_" gradientUnits="userSpaceOnUse" x1="25.1642" y1="1078.943" x2="30.1542" y2="1052.1029" gradientTransform="matrix(1 0 0 1 0 -1018.78)">
				<stop  offset="0" style="stop-color:#8E5323"/>
				<stop  offset="1" style="stop-color:#E59B29"/>
			</linearGradient>
			<path class="st20" d="M24.2,58.6L24.2,58.6c3.4-3.4,6.2-9,5.4-13c-0.4-2.3-1.6-4.3-3.3-5.8v-0.1c0-0.3-0.1-0.6-0.1-0.9l0,0l0,0
				C26.1,38.9,36.7,47.1,24.2,58.6z"/>
		</g>
	</g>
</g>
<linearGradient id="SVGID_21_" gradientUnits="userSpaceOnUse" x1="0" y1="1048.48" x2="59.3" y2="1048.48" gradientTransform="matrix(1 0 0 1 0 -1018.78)">
	<stop  offset="0" style="stop-color:#EF7126"/>
	<stop  offset="1" style="stop-color:#F8D832"/>
</linearGradient>
<path class="st21" d="M29.7,59.4C13.3,59.4,0,46.1,0,29.7S13.3,0,29.7,0s29.6,13.3,29.6,29.7S46.1,59.3,29.7,59.4z M29.7,1.4
	C14.1,1.4,1.4,14.1,1.4,29.7S14.1,58,29.7,58s28.2-12.7,28.2-28.3l0,0C57.9,14.1,45.3,1.4,29.7,1.4z"/>
</svg>
