<svg width="320" height="320" viewBox="0 0 320 320" fill="none" xmlns="http://www.w3.org/2000/svg">
<path d="M0 160C0 191.645 9.38383 222.579 26.9649 248.891C44.5459 275.203 69.5345 295.711 98.7706 307.821C128.007 319.931 160.177 323.099 191.214 316.926C222.251 310.752 250.761 295.513 273.137 273.137C295.513 250.761 310.752 222.251 316.926 191.214C323.099 160.177 319.931 128.007 307.821 98.7706C295.711 69.5345 275.203 44.5459 248.891 26.9649C222.579 9.38383 191.645 0 160 0C117.565 0 76.8687 16.8571 46.8629 46.8629C16.8571 76.8687 0 117.565 0 160H0Z" fill="#121122"/>
<path fill-rule="evenodd" clip-rule="evenodd" d="M48.2753 119.458C46.3197 132.044 48.622 144.995 51.0131 157.44C51.9345 159.428 53.9534 160.767 56.4419 161.624C51.3381 172.398 48.5325 184.146 48.5325 196.444C48.5325 248.524 98.9503 290.782 161.137 290.782C223.324 290.782 273.777 248.622 273.777 196.444C273.777 184.017 270.915 172.154 265.713 161.292C267.794 160.434 269.454 159.188 270.267 157.44C272.658 144.995 274.951 132.044 272.996 119.458C271.165 102.569 265.369 97.4133 247.965 101.742C239.111 103.798 227.441 109.024 218.467 115.171C201.67 106.836 182.068 102.053 161.137 102.053C139.966 102.053 120.159 106.951 103.24 115.469C94.2128 109.193 82.3049 103.831 73.3153 101.742C55.902 97.4133 50.1153 102.569 48.2753 119.458ZM113.839 193.92C100.639 188.098 78.0792 189.573 78.0792 189.573C78.0792 189.573 79.137 210.809 92.0881 218.018C107.448 226.56 136.008 222.329 136.008 222.329C136.008 222.329 133.581 202.578 113.839 193.876V193.92ZM187.181 222.364C187.181 222.364 215.741 226.596 231.101 218.053C244.052 210.844 245.11 189.609 245.11 189.609C245.11 189.609 222.55 188.133 209.35 193.956C189.608 202.578 187.181 222.284 187.181 222.284V222.364ZM155.501 237.333C155.501 238.898 158.408 240.169 161.99 240.169C165.572 240.169 168.479 238.898 168.479 237.333C168.479 235.769 165.572 234.507 161.99 234.507C158.408 234.507 155.501 235.724 155.501 237.333Z" fill="#F2F4F8"/>
<path fill-rule="evenodd" clip-rule="evenodd" d="M289.467 224.258C278.927 220.188 267.733 218.08 256.435 218.036H256.453C253.591 218.036 253.591 213.591 256.453 213.591C268.152 213.629 279.747 215.801 290.667 220C291.219 220.169 291.686 220.544 291.972 221.046C292.258 221.548 292.341 222.141 292.204 222.702C292.044 223.27 291.667 223.751 291.155 224.042C290.642 224.333 290.036 224.411 289.467 224.258ZM32.3469 220.098C43.2701 215.9 54.8671 213.728 66.5691 213.689V213.715C69.4314 213.715 69.4225 218.16 66.5691 218.16C55.2683 218.2 44.0703 220.309 33.5291 224.382C32.9612 224.532 32.3568 224.454 31.8464 224.163C31.3359 223.872 30.9602 223.392 30.8003 222.826C30.6588 222.26 30.7404 221.661 31.0283 221.153C31.3162 220.645 31.7883 220.267 32.3469 220.098ZM55.005 232.835C60.4713 231.095 66.1572 230.141 71.892 230C74.7383 230.016 74.733 234.444 71.8761 234.444C66.6455 234.581 61.4601 235.452 56.4717 237.031C51.8317 238.391 46.525 240.311 43.1384 243.449C41.0406 245.395 37.8939 242.258 40.0006 240.311C44.1161 236.507 49.7784 234.409 55.005 232.835ZM71.892 230L71.8939 230H71.8761L71.892 230ZM76.9601 241.102C72.5027 243.01 68.2173 245.297 64.1513 247.938C60.0441 250.469 56.4301 253.725 53.4846 257.546C53.189 258.055 53.1063 258.66 53.2545 259.229C53.4026 259.799 53.7697 260.286 54.2757 260.586C54.7883 260.871 55.3908 260.948 55.9583 260.8C56.5258 260.653 57.015 260.293 57.3246 259.795C59.8224 256.346 63.4046 253.671 66.9513 251.386C70.8442 248.916 74.9283 246.761 79.1646 244.942C79.6703 244.642 80.0377 244.155 80.1874 243.586C80.3371 243.017 80.257 242.412 79.9646 241.902C79.6566 241.405 79.1696 241.045 78.6041 240.896C78.0385 240.747 77.4374 240.821 76.9246 241.102H76.9601ZM251.112 234.355C256.343 234.486 261.529 235.353 266.516 236.933C269.094 237.666 271.611 238.596 274.045 239.715C276.146 240.634 278.096 241.862 279.832 243.36C281.93 245.298 285.076 242.169 282.979 240.213C278.89 236.418 273.263 234.311 268.001 232.738C262.534 230.997 256.847 230.046 251.112 229.911C248.25 229.911 248.241 234.355 251.112 234.355ZM256.019 251.253C252.174 248.876 248.154 246.796 243.992 245.031V244.987C243.488 244.685 243.122 244.198 242.973 243.63C242.823 243.062 242.902 242.457 243.192 241.947C243.505 241.452 243.994 241.095 244.56 240.948C245.126 240.801 245.727 240.875 246.241 241.156C254.899 244.933 264.01 249.787 269.672 257.6C269.965 258.109 270.047 258.713 269.899 259.282C269.751 259.851 269.385 260.338 268.881 260.64C268.369 260.923 267.767 260.998 267.201 260.849C266.634 260.7 266.147 260.339 265.841 259.84C263.281 256.311 259.663 253.573 256.019 251.253Z" fill="#F2F4F8"/>
<path d="M15.4577 168.764C17.511 165.564 35.5554 155.938 57.8843 150.222C62.7037 136.536 68.65 123.272 75.6621 110.569C75.5732 110.569 93.5199 78.3556 93.4399 78.3378C88.2934 75.9958 83.3518 73.2276 78.6665 70.0623C77.8733 69.452 77.1543 68.751 76.5243 67.9734C76.0488 67.1886 75.8025 66.2864 75.8132 65.3689C75.8132 64.6223 76.871 63.2889 77.3421 62.7023C78.5442 61.2883 79.871 59.9853 81.3065 58.8089C84.7283 56.0071 88.3236 53.4242 92.071 51.0756C93.8488 49.9023 95.6976 48.7556 97.5199 47.6C110.32 39.4489 117.333 33.3156 129.058 26.5778C140.258 20.1601 145.698 16.2045 158.684 16.8712C175.004 16.8712 215.573 68.5512 233.867 95.1823C244.835 111.182 259.555 139.991 264.978 150.827C266.275 151.156 267.449 151.467 268.533 151.787C285.173 156.782 301.493 164.107 305.484 168.764C309.04 172.907 293.502 174.756 278.186 177.422C262.871 180.089 210.915 181.413 160.987 181.751C111.058 182.089 52.7821 180.418 40.0977 178.418C27.4132 176.418 12.9066 172.756 15.4577 168.764Z" fill="#6665DD"/>
<path d="M251.057 124.125C251.057 124.125 218.168 115.885 160.222 115.885C97.9993 115.885 68.0349 125.485 68.0349 125.485C68.0349 125.485 64.4793 132.24 62.9327 136.151C61.386 140.062 57.8838 150.222 57.8838 150.222C57.8838 150.222 103.155 142.116 161.093 142.116C195.98 142.26 230.8 145.203 265.217 150.916C265.217 150.916 259.964 138.622 256.817 133.378C253.67 128.133 251.057 124.125 251.057 124.125Z" fill="#FF99A5"/>
<path d="M55.3154 54.6043C59.0843 54.0532 64.2043 65.591 64.2043 65.591C64.2043 65.591 76.0621 62.3999 77.9109 65.591C79.7598 68.7821 69.5732 76.4443 69.5732 76.4443C69.5732 76.4443 75.7243 87.2621 73.7776 89.511C71.8309 91.7599 60.8621 84.9332 60.8621 84.9332C60.8621 84.9332 52.4976 94.3554 49.7687 92.9332C47.0398 91.511 50.1332 79.2354 50.1332 79.2354C50.1332 79.2354 38.3021 74.2043 39.111 71.2177C39.9198 68.231 52.2487 67.3243 52.2487 67.3243C52.2487 67.3243 51.5554 55.1554 55.3154 54.6043Z" fill="#FFE600"/>
</svg>
